#!OML:ASF F:\VICON\USERDATA\INSTALL\rory3\rory3.ASF
:FULLY-SPECIFIED
:DEGREES
828
root 0.50426 9.96093 -1.06908 -31.1246 55.6694 0.0548421
lowerback 39.6309 6.22756 -7.98861
upperback 12.9547 5.77181 -1.82536
thorax -4.95206 3.17465 -0.0547459
lowerneck -6.6518 -10.3745 -10.3667
upperneck 17.6226 -13.9821 7.21882
head 7.77196 -6.7639 2.69878
rclavicle -6.55989e-014 6.52014e-014
rhumerus 47.2574 8.36008 -36.7313
rradius 107.705
rwrist -35.6281
rhand -10.4407 10.3421
rfingers 7.12502
rthumb 15.5593 -19.052
lclavicle -6.55989e-014 6.52014e-014
lhumerus 52.0849 -46.2962 -6.00023
lradius 81.3408
lwrist 8.35411
lhand -17.9566 12.8552
lfingers 7.12502
lthumb 8.3122 42.6717
rfemur -108.726 -50.8342 26.3663
rtibia 145.641
rfoot -1.55681 -9.89826
rtoes 53.1308
lfemur -64.8327 24.8698 -7.06774
ltibia 94.4374
lfoot 9.03632 -8.73311
ltoes 5.66233
829
root 0.503929 9.96225 -1.05951 -30.9414 55.7951 0.158834
lowerback 39.5542 6.22621 -7.99377
upperback 13.0022 5.79299 -1.67541
thorax -4.89399 3.17797 0.104891
lowerneck -6.64953 -10.386 -10.3726
upperneck 17.0554 -13.9899 7.31583
head 7.59288 -6.76899 2.73728
rclavicle -1.19271e-014 -5.40694e-014
rhumerus 47.523 8.38068 -36.8202
rradius 107.936
rwrist -35.5411
rhand -11.547 9.84004
rfingers 7.12502
rthumb 14.4935 -19.6338
lclavicle -1.19271e-014 -5.40694e-014
lhumerus 51.8101 -46.4927 -5.79722
lradius 81.3244
lwrist 8.4562
lhand -18.3448 12.8196
lfingers 7.12502
lthumb 7.93757 42.6506
rfemur -108.703 -50.9566 26.3722
rtibia 145.671
rfoot -1.29812 -9.82386
rtoes 53.1949
lfemur -64.9125 24.8036 -7.20554
ltibia 94.3939
lfoot 9.07258 -8.72922
ltoes 5.80562
830
root 0.504019 9.9643 -1.05233 -30.8809 55.9223 0.183965
lowerback 39.5685 6.07919 -8.11501
upperback 13.1458 5.60094 -1.35313
thorax -4.76916 3.06523 0.585045
lowerneck -7.08534 -10.345 -11.1727
upperneck 16.7672 -13.8024 7.46345
head 7.62885 -6.70906 2.90608
rclavicle -6.36111e-015 2.54444e-014
rhumerus 48.5211 8.61686 -36.6289
rradius 108.016
rwrist -35.673
rhand -11.7874 9.88236
rfingers 7.12502
rthumb 14.2619 -19.6079
lclavicle -6.36111e-015 2.54444e-014
lhumerus 50.4897 -46.5557 -4.57437
lradius 81.2662
lwrist 8.17317
lhand -18.5917 12.2622
lfingers 7.12502
lthumb 7.69923 42.1021
rfemur -108.453 -51.1925 26.3508
rtibia 145.65
rfoot -1.11253 -9.65443
rtoes 53.0795
lfemur -64.9572 24.7171 -7.2717
ltibia 94.3701
lfoot 9.15199 -8.71222
ltoes 6.1695
831
root 0.505686 9.96488 -1.04808 -30.7341 56.0915 0.312925
lowerback 39.7009 5.92514 -8.07766
upperback 13.1677 5.42315 -1.22591
thorax -4.78764 2.97562 0.761602
lowerneck -7.34494 -10.3277 -11.5952
upperneck 16.5577 -13.7097 7.58836
head 7.63747 -6.67592 3.00922
rclavicle -7.07673e-014 1.59028e-015
rhumerus 49.0666 8.83239 -36.5852
rradius 108.286
rwrist -35.9329
rhand -11.2657 10.3104
rfingers 7.12502
rthumb 14.7645 -19.1438
lclavicle -7.07673e-014 1.59028e-015
lhumerus 49.7758 -46.7888 -4.05182
lradius 81.146
lwrist 8.49641
lhand -19.1546 10.7242
lfingers 7.12502
lthumb 7.15596 40.5832
rfemur -108.297 -51.4434 26.2398
rtibia 145.667
rfoot -0.817185 -9.44041
rtoes 52.6515
lfemur -65.0361 24.6777 -7.4916
ltibia 94.3499
lfoot 9.12247 -8.78911
ltoes 5.59159
832
root 0.506472 9.96421 -1.04342 -30.5773 56.1651 0.368461
lowerback 39.8082 5.87334 -7.72177
upperback 13.0776 5.47088 -1.29314
thorax -4.90399 3.01512 0.483616
lowerneck -7.23643 -10.4058 -11.2808
upperneck 16.1916 -13.8751 7.69504
head 7.49871 -6.73517 2.98648
rclavicle -5.96354e-014 3.65764e-014
rhumerus 48.8522 8.70396 -37.0021
rradius 108.604
rwrist -35.9871
rhand -10.1123 10.8209
rfingers 7.12502
rthumb 15.8755 -18.5484
lclavicle -5.96354e-014 3.65764e-014
lhumerus 50.1436 -47.0703 -4.53976
lradius 81.0911
lwrist 9.02877
lhand -19.8477 11.9257
lfingers 7.12502
lthumb 6.48687 41.8063
rfemur -108.271 -51.3806 26.223
rtibia 145.712
rfoot -0.557564 -9.30919
rtoes 52.2267
lfemur -65.1863 24.7613 -7.66011
ltibia 94.3291
lfoot 9.03278 -8.93304
ltoes 4.58687
833
root 0.506252 9.96401 -1.03582 -30.4856 56.1671 0.338215
lowerback 39.8399 5.88555 -7.42627
upperback 13.0443 5.59589 -1.25184
thorax -4.9509 3.08373 0.327446
lowerneck -7.1936 -10.524 -11.0407
upperneck 15.8185 -14.064 7.73422
head 7.3727 -6.81447 2.94719
rclavicle -3.69739e-014 -1.59028e-015
rhumerus 48.7143 8.32133 -37.4894
rradius 108.902
rwrist -36.2083
rhand -8.79402 11.0958
rfingers 7.12502
rthumb 17.1447 -18.1678
lclavicle -3.69739e-014 -1.59028e-015
lhumerus 50.4068 -47.2431 -4.84061
lradius 81.0843
lwrist 9.23852
lhand -20.1501 11.8437
lfingers 7.12502
lthumb 6.19491 41.7332
rfemur -108.131 -51.2919 26.2894
rtibia 145.74
rfoot -0.483106 -9.08488
rtoes 52.0755
lfemur -65.3194 24.9091 -7.68328
ltibia 94.3152
lfoot 9.06753 -8.99799
ltoes 4.88548
834
root 0.507688 9.96266 -1.02955 -30.4235 56.2217 0.291996
lowerback 39.8157 5.77884 -7.36858
upperback 13.1233 5.5104 -1.03631
thorax -4.87346 3.03326 0.564114
lowerneck -7.51501 -10.5764 -11.4073
upperneck 15.6213 -14.0446 7.72624
head 7.39016 -6.82024 2.98609
rclavicle 8.34896e-015 5.88403e-014
rhumerus 49.4046 8.58824 -37.7881
rradius 108.923
rwrist -36.1374
rhand -8.09011 11.1669
rfingers 7.12502
rthumb 17.8221 -18.0364
lclavicle 8.34896e-015 5.88403e-014
lhumerus 49.6472 -47.3689 -4.21986
lradius 81.0546
lwrist 9.25646
lhand -20.3188 11.9798
lfingers 7.12502
lthumb 6.03206 41.874
rfemur -107.997 -51.2769 26.3363
rtibia 145.759
rfoot -0.432824 -8.85138
rtoes 52.0332
lfemur -65.4823 25.0071 -7.74379
ltibia 94.3137
lfoot 9.16023 -9.07227
ltoes 5.327
835
root 0.509391 9.96255 -1.0258 -30.2147 56.3829 0.422334
lowerback 39.7896 5.64794 -7.37344
upperback 13.2093 5.37025 -0.879517
thorax -4.78017 2.95792 0.791738
lowerneck -7.72072 -10.5918 -11.7488
upperneck 15.2112 -13.9993 7.84534
head 7.32258 -6.80747 3.07433
rclavicle 6.36111e-015 -4.92986e-014
rhumerus 49.9952 8.72196 -37.8767
rradius 109.148
rwrist -36.1528
rhand -7.86237 11.2879
rfingers 7.12502
rthumb 18.0413 -17.8954
lclavicle 6.36111e-015 -4.92986e-014
lhumerus 48.9414 -47.4928 -3.66306
lradius 81.0138
lwrist 9.21487
lhand -20.5444 12.2294
lfingers 7.12502
lthumb 5.81427 42.1296
rfemur -108.074 -51.3451 26.3006
rtibia 145.813
rfoot -0.177379 -8.67494
rtoes 51.9458
lfemur -65.6433 24.9917 -8.00417
ltibia 94.2919
lfoot 9.15165 -9.15858
ltoes 4.8745
836
root 0.510409 9.9641 -1.02017 -29.872 56.5294 0.706322
lowerback 39.7826 5.61185 -7.36653
upperback 13.2374 5.33804 -0.82779
thorax -4.7504 2.94134 0.85692
lowerneck -7.71807 -10.6251 -11.7446
upperneck 14.6946 -14.0432 7.97176
head 7.16766 -6.82426 3.11562
rclavicle -2.5842e-014 1.82882e-014
rhumerus 50.2111 8.64347 -38.0691
rradius 109.524
rwrist -36.1908
rhand -7.65832 11.5155
rfingers 7.12502
rthumb 18.2376 -17.6495
lclavicle -2.5842e-014 1.82882e-014
lhumerus 48.7688 -47.6454 -3.65419
lradius 81.0351
lwrist 9.29979
lhand -20.8507 12.2329
lfingers 7.12502
lthumb 5.51854 42.1411
rfemur -108.228 -51.5269 26.3192
rtibia 145.881
rfoot 0.108432 -8.33323
rtoes 51.8768
lfemur -65.7469 24.9637 -8.29133
ltibia 94.2679
lfoot 9.11828 -9.13846
ltoes 4.59226
837
root 0.511517 9.96489 -1.01417 -29.5161 56.6068 0.94514
lowerback 39.7657 5.57072 -7.25913
upperback 13.215 5.32667 -0.833653
thorax -4.7657 2.93969 0.801252
lowerneck -7.7113 -10.6482 -11.6545
upperneck 14.284 -14.0906 8.10302
head 7.0413 -6.83727 3.14438
rclavicle -3.65764e-014 4.29375e-014
rhumerus 50.3163 8.55661 -38.3749
rradius 109.852
rwrist -36.1725
rhand -7.53334 11.6454
rfingers 7.12502
rthumb 18.3578 -17.5084
lclavicle -3.65764e-014 4.29375e-014
lhumerus 48.7853 -47.8209 -3.82683
lradius 81.0338
lwrist 9.56568
lhand -21.2422 12.0206
lfingers 7.12502
lthumb 5.14051 41.9382
rfemur -108.32 -51.5929 26.4354
rtibia 145.897
rfoot 0.179196 -7.84892
rtoes 51.8207
lfemur -65.9168 24.9971 -8.48202
ltibia 94.2819
lfoot 9.1934 -9.0419
ltoes 5.11853
